<mxfile host="app.diagrams.net" modified="2022-09-26T04:13:17.902Z" agent="5.0 (Macintosh; Intel Mac OS X 10_15_7) AppleWebKit/605.1.15 (KHTML, like Gecko) Version/15.6.1 Safari/605.1.15" etag="jjcP_hjnEMxQber_QeHE" version="20.3.3" type="github">
  <diagram id="dyDDBTxgHDa65sppYYXi" name="Page-1">
    <mxGraphModel dx="830" dy="768" grid="1" gridSize="10" guides="1" tooltips="1" connect="1" arrows="1" fold="1" page="1" pageScale="1" pageWidth="850" pageHeight="1100" math="0" shadow="0">
      <root>
        <mxCell id="0" />
        <mxCell id="1" parent="0" />
        <mxCell id="G9hjPb3qPpzQMkO1XGVD-11" value="PinProcessJsHandler" style="shape=umlLifeline;perimeter=lifelinePerimeter;whiteSpace=wrap;html=1;container=1;collapsible=0;recursiveResize=0;outlineConnect=0;" vertex="1" parent="1">
          <mxGeometry x="20" y="60" width="130" height="300" as="geometry" />
        </mxCell>
        <mxCell id="G9hjPb3qPpzQMkO1XGVD-12" value="exec" style="html=1;verticalAlign=bottom;startArrow=oval;startFill=1;endArrow=block;startSize=8;rounded=0;" edge="1" parent="G9hjPb3qPpzQMkO1XGVD-11" target="G9hjPb3qPpzQMkO1XGVD-11">
          <mxGeometry width="60" relative="1" as="geometry">
            <mxPoint x="-10" y="130" as="sourcePoint" />
            <mxPoint x="100" y="130" as="targetPoint" />
          </mxGeometry>
        </mxCell>
        <mxCell id="G9hjPb3qPpzQMkO1XGVD-13" value="Pin" style="shape=umlLifeline;perimeter=lifelinePerimeter;whiteSpace=wrap;html=1;container=1;collapsible=0;recursiveResize=0;outlineConnect=0;" vertex="1" parent="1">
          <mxGeometry x="310" y="60" width="100" height="300" as="geometry" />
        </mxCell>
        <mxCell id="G9hjPb3qPpzQMkO1XGVD-14" value="process" style="html=1;verticalAlign=bottom;endArrow=block;rounded=0;" edge="1" parent="1" source="G9hjPb3qPpzQMkO1XGVD-11" target="G9hjPb3qPpzQMkO1XGVD-13">
          <mxGeometry width="80" relative="1" as="geometry">
            <mxPoint x="160" y="190" as="sourcePoint" />
            <mxPoint x="350" y="140" as="targetPoint" />
          </mxGeometry>
        </mxCell>
        <mxCell id="G9hjPb3qPpzQMkO1XGVD-15" value="PinCheckJsHandler" style="shape=umlLifeline;perimeter=lifelinePerimeter;whiteSpace=wrap;html=1;container=1;collapsible=0;recursiveResize=0;outlineConnect=0;" vertex="1" parent="1">
          <mxGeometry x="170" y="60" width="120" height="300" as="geometry" />
        </mxCell>
        <mxCell id="G9hjPb3qPpzQMkO1XGVD-16" value="exec" style="html=1;verticalAlign=bottom;startArrow=oval;startFill=1;endArrow=block;startSize=8;rounded=0;" edge="1" parent="G9hjPb3qPpzQMkO1XGVD-15">
          <mxGeometry width="60" relative="1" as="geometry">
            <mxPoint x="-10" y="200" as="sourcePoint" />
            <mxPoint x="59.5" y="200" as="targetPoint" />
            <Array as="points">
              <mxPoint x="60" y="200" />
            </Array>
          </mxGeometry>
        </mxCell>
        <mxCell id="G9hjPb3qPpzQMkO1XGVD-17" value="check" style="html=1;verticalAlign=bottom;endArrow=block;rounded=0;" edge="1" parent="G9hjPb3qPpzQMkO1XGVD-15" target="G9hjPb3qPpzQMkO1XGVD-13">
          <mxGeometry width="80" relative="1" as="geometry">
            <mxPoint x="60" y="206" as="sourcePoint" />
            <mxPoint x="140" y="206" as="targetPoint" />
          </mxGeometry>
        </mxCell>
        <mxCell id="G9hjPb3qPpzQMkO1XGVD-18" value="Hades" style="shape=umlLifeline;perimeter=lifelinePerimeter;whiteSpace=wrap;html=1;container=1;collapsible=0;recursiveResize=0;outlineConnect=0;" vertex="1" parent="1">
          <mxGeometry x="425" y="60" width="100" height="300" as="geometry" />
        </mxCell>
        <mxCell id="G9hjPb3qPpzQMkO1XGVD-19" value="checkWidget" style="html=1;verticalAlign=bottom;endArrow=block;rounded=0;" edge="1" parent="1" source="G9hjPb3qPpzQMkO1XGVD-13" target="G9hjPb3qPpzQMkO1XGVD-18">
          <mxGeometry width="80" relative="1" as="geometry">
            <mxPoint x="430" y="210" as="sourcePoint" />
            <mxPoint x="510" y="210" as="targetPoint" />
            <Array as="points">
              <mxPoint x="440" y="270" />
            </Array>
          </mxGeometry>
        </mxCell>
        <mxCell id="G9hjPb3qPpzQMkO1XGVD-20" value="addWidget" style="html=1;verticalAlign=bottom;endArrow=block;rounded=0;" edge="1" parent="1" source="G9hjPb3qPpzQMkO1XGVD-13" target="G9hjPb3qPpzQMkO1XGVD-18">
          <mxGeometry width="80" relative="1" as="geometry">
            <mxPoint x="430" y="210" as="sourcePoint" />
            <mxPoint x="510" y="210" as="targetPoint" />
          </mxGeometry>
        </mxCell>
        <mxCell id="G9hjPb3qPpzQMkO1XGVD-21" value="IHadesService" style="shape=umlLifeline;perimeter=lifelinePerimeter;whiteSpace=wrap;html=1;container=1;collapsible=0;recursiveResize=0;outlineConnect=0;" vertex="1" parent="1">
          <mxGeometry x="540" y="60" width="100" height="300" as="geometry" />
        </mxCell>
        <mxCell id="G9hjPb3qPpzQMkO1XGVD-22" value="HadesServiceImpl" style="shape=umlLifeline;perimeter=lifelinePerimeter;whiteSpace=wrap;html=1;container=1;collapsible=0;recursiveResize=0;outlineConnect=0;" vertex="1" parent="1">
          <mxGeometry x="660" y="60" width="100" height="300" as="geometry" />
        </mxCell>
        <mxCell id="G9hjPb3qPpzQMkO1XGVD-23" value="IHadesService" style="swimlane;fontStyle=0;childLayout=stackLayout;horizontal=1;startSize=26;fillColor=none;horizontalStack=0;resizeParent=1;resizeParentMax=0;resizeLast=0;collapsible=1;marginBottom=0;" vertex="1" parent="1">
          <mxGeometry x="40" y="446" width="730" height="364" as="geometry" />
        </mxCell>
        <mxCell id="G9hjPb3qPpzQMkO1XGVD-24" value="+ setTestChannel(boolean isTest):void" style="text;strokeColor=none;fillColor=none;align=left;verticalAlign=top;spacingLeft=4;spacingRight=4;overflow=hidden;rotatable=0;points=[[0,0.5],[1,0.5]];portConstraint=eastwest;" vertex="1" parent="G9hjPb3qPpzQMkO1XGVD-23">
          <mxGeometry y="26" width="730" height="26" as="geometry" />
        </mxCell>
        <mxCell id="G9hjPb3qPpzQMkO1XGVD-25" value="+ checkWidget(Context context, HadesWidgetEnum widgetEnum, int source, List&lt;String&gt; scenes, CheckWidgetCallback callback):void" style="text;strokeColor=none;fillColor=none;align=left;verticalAlign=top;spacingLeft=4;spacingRight=4;overflow=hidden;rotatable=0;points=[[0,0.5],[1,0.5]];portConstraint=eastwest;" vertex="1" parent="G9hjPb3qPpzQMkO1XGVD-23">
          <mxGeometry y="52" width="730" height="26" as="geometry" />
        </mxCell>
        <mxCell id="G9hjPb3qPpzQMkO1XGVD-26" value="+ refreshWidget(HadesWidgetEnum refreshWidget, final RefreshWidgetCallback refreshWidgetCallback):void" style="text;strokeColor=none;fillColor=none;align=left;verticalAlign=top;spacingLeft=4;spacingRight=4;overflow=hidden;rotatable=0;points=[[0,0.5],[1,0.5]];portConstraint=eastwest;" vertex="1" parent="G9hjPb3qPpzQMkO1XGVD-23">
          <mxGeometry y="78" width="730" height="26" as="geometry" />
        </mxCell>
        <mxCell id="G9hjPb3qPpzQMkO1XGVD-27" value="+ getAddHelperView(Context context, HadesWidgetEnum widgetEnum):View" style="text;strokeColor=none;fillColor=none;align=left;verticalAlign=top;spacingLeft=4;spacingRight=4;overflow=hidden;rotatable=0;points=[[0,0.5],[1,0.5]];portConstraint=eastwest;" vertex="1" parent="G9hjPb3qPpzQMkO1XGVD-23">
          <mxGeometry y="104" width="730" height="26" as="geometry" />
        </mxCell>
        <mxCell id="G9hjPb3qPpzQMkO1XGVD-28" value="+ addWidget(Context context, HadesWidgetEnum widgetEnum, WidgetAddParams params, AddWidgetCallback callback):void" style="text;strokeColor=none;fillColor=none;align=left;verticalAlign=top;spacingLeft=4;spacingRight=4;overflow=hidden;rotatable=0;points=[[0,0.5],[1,0.5]];portConstraint=eastwest;" vertex="1" parent="G9hjPb3qPpzQMkO1XGVD-23">
          <mxGeometry y="130" width="730" height="26" as="geometry" />
        </mxCell>
        <mxCell id="G9hjPb3qPpzQMkO1XGVD-29" value="+ addEntranceOnExposed(HadesWidgetEnum widgetEnum, int source):void" style="text;strokeColor=none;fillColor=none;align=left;verticalAlign=top;spacingLeft=4;spacingRight=4;overflow=hidden;rotatable=0;points=[[0,0.5],[1,0.5]];portConstraint=eastwest;" vertex="1" parent="G9hjPb3qPpzQMkO1XGVD-23">
          <mxGeometry y="156" width="730" height="26" as="geometry" />
        </mxCell>
        <mxCell id="G9hjPb3qPpzQMkO1XGVD-30" value="+ pullout(Context context):void" style="text;strokeColor=none;fillColor=none;align=left;verticalAlign=top;spacingLeft=4;spacingRight=4;overflow=hidden;rotatable=0;points=[[0,0.5],[1,0.5]];portConstraint=eastwest;" vertex="1" parent="G9hjPb3qPpzQMkO1XGVD-23">
          <mxGeometry y="182" width="730" height="26" as="geometry" />
        </mxCell>
        <mxCell id="G9hjPb3qPpzQMkO1XGVD-31" value="+ enableFeatureDebug(Context context, final boolean featureDebug):void" style="text;strokeColor=none;fillColor=none;align=left;verticalAlign=top;spacingLeft=4;spacingRight=4;overflow=hidden;rotatable=0;points=[[0,0.5],[1,0.5]];portConstraint=eastwest;" vertex="1" parent="G9hjPb3qPpzQMkO1XGVD-23">
          <mxGeometry y="208" width="730" height="26" as="geometry" />
        </mxCell>
        <mxCell id="G9hjPb3qPpzQMkO1XGVD-32" value="+ isFeatureDebug(Context context):boolean" style="text;strokeColor=none;fillColor=none;align=left;verticalAlign=top;spacingLeft=4;spacingRight=4;overflow=hidden;rotatable=0;points=[[0,0.5],[1,0.5]];portConstraint=eastwest;" vertex="1" parent="G9hjPb3qPpzQMkO1XGVD-23">
          <mxGeometry y="234" width="730" height="26" as="geometry" />
        </mxCell>
        <mxCell id="G9hjPb3qPpzQMkO1XGVD-33" value="+ recordAction(Map&lt;String, Object&gt; itemMap):void" style="text;strokeColor=none;fillColor=none;align=left;verticalAlign=top;spacingLeft=4;spacingRight=4;overflow=hidden;rotatable=0;points=[[0,0.5],[1,0.5]];portConstraint=eastwest;" vertex="1" parent="G9hjPb3qPpzQMkO1XGVD-23">
          <mxGeometry y="260" width="730" height="26" as="geometry" />
        </mxCell>
        <mxCell id="G9hjPb3qPpzQMkO1XGVD-34" value="+ onHomeLoadFinished(final Context context):void" style="text;strokeColor=none;fillColor=none;align=left;verticalAlign=top;spacingLeft=4;spacingRight=4;overflow=hidden;rotatable=0;points=[[0,0.5],[1,0.5]];portConstraint=eastwest;" vertex="1" parent="G9hjPb3qPpzQMkO1XGVD-23">
          <mxGeometry y="286" width="730" height="26" as="geometry" />
        </mxCell>
        <mxCell id="G9hjPb3qPpzQMkO1XGVD-35" value="+ getWidgetEnum(Context context, String scene):HadesWidgetEnum" style="text;strokeColor=none;fillColor=none;align=left;verticalAlign=top;spacingLeft=4;spacingRight=4;overflow=hidden;rotatable=0;points=[[0,0.5],[1,0.5]];portConstraint=eastwest;" vertex="1" parent="G9hjPb3qPpzQMkO1XGVD-23">
          <mxGeometry y="312" width="730" height="26" as="geometry" />
        </mxCell>
        <mxCell id="G9hjPb3qPpzQMkO1XGVD-36" value="+ enablePinBridge(Context context):boolean" style="text;strokeColor=none;fillColor=none;align=left;verticalAlign=top;spacingLeft=4;spacingRight=4;overflow=hidden;rotatable=0;points=[[0,0.5],[1,0.5]];portConstraint=eastwest;" vertex="1" parent="G9hjPb3qPpzQMkO1XGVD-23">
          <mxGeometry y="338" width="730" height="26" as="geometry" />
        </mxCell>
      </root>
    </mxGraphModel>
  </diagram>
</mxfile>
